<mxfile host="app.diagrams.net" agent="Mozilla/5.0 (Windows NT 10.0; Win64; x64) AppleWebKit/537.36 (KHTML, like Gecko) Chrome/134.0.0.0 Safari/537.36" version="26.1.3">
  <diagram name="Page-1" id="2XTDRZ49NLIbL1LMWRJv">
    <mxGraphModel dx="1434" dy="738" grid="0" gridSize="10" guides="1" tooltips="1" connect="1" arrows="1" fold="1" page="1" pageScale="1" pageWidth="850" pageHeight="1100" math="0" shadow="0">
      <root>
        <mxCell id="0" />
        <mxCell id="1" parent="0" />
        <mxCell id="sfyr1FewhB0_T64nZSGB-2" value="CNN" style="html=1;whiteSpace=wrap;" vertex="1" parent="1">
          <mxGeometry x="257" y="163" width="110" height="50" as="geometry" />
        </mxCell>
        <mxCell id="sfyr1FewhB0_T64nZSGB-3" value="CNN" style="html=1;whiteSpace=wrap;" vertex="1" parent="1">
          <mxGeometry x="257" y="233" width="110" height="50" as="geometry" />
        </mxCell>
        <mxCell id="sfyr1FewhB0_T64nZSGB-4" value="CNN" style="html=1;whiteSpace=wrap;" vertex="1" parent="1">
          <mxGeometry x="257" y="303" width="110" height="50" as="geometry" />
        </mxCell>
        <mxCell id="sfyr1FewhB0_T64nZSGB-5" value="CNN" style="html=1;whiteSpace=wrap;" vertex="1" parent="1">
          <mxGeometry x="257" y="373" width="110" height="50" as="geometry" />
        </mxCell>
        <mxCell id="sfyr1FewhB0_T64nZSGB-6" value="CNN" style="html=1;whiteSpace=wrap;" vertex="1" parent="1">
          <mxGeometry x="257" y="443" width="110" height="50" as="geometry" />
        </mxCell>
        <mxCell id="sfyr1FewhB0_T64nZSGB-39" value="" style="shape=image;verticalLabelPosition=bottom;labelBackgroundColor=default;verticalAlign=top;aspect=fixed;imageAspect=0;image=https://support.minitab.com/en-us/minitab/media/generated-content/images/connectline_scatterplot_def.png;" vertex="1" parent="1">
          <mxGeometry x="85" y="434" width="105.19" height="70" as="geometry" />
        </mxCell>
        <mxCell id="sfyr1FewhB0_T64nZSGB-40" value="Lidar points per scan" style="text;html=1;align=center;verticalAlign=middle;whiteSpace=wrap;rounded=0;" vertex="1" parent="1">
          <mxGeometry x="78" y="104" width="124.91" height="30" as="geometry" />
        </mxCell>
        <mxCell id="sfyr1FewhB0_T64nZSGB-44" value="" style="shape=image;verticalLabelPosition=bottom;labelBackgroundColor=default;verticalAlign=top;aspect=fixed;imageAspect=0;image=https://support.minitab.com/en-us/minitab/media/generated-content/images/connectline_scatterplot_def.png;" vertex="1" parent="1">
          <mxGeometry x="85" y="157" width="105.19" height="70" as="geometry" />
        </mxCell>
        <mxCell id="sfyr1FewhB0_T64nZSGB-45" value="" style="shape=image;verticalLabelPosition=bottom;labelBackgroundColor=default;verticalAlign=top;aspect=fixed;imageAspect=0;image=https://support.minitab.com/en-us/minitab/media/generated-content/images/connectline_scatterplot_def.png;" vertex="1" parent="1">
          <mxGeometry x="85" y="225" width="105.19" height="70" as="geometry" />
        </mxCell>
        <mxCell id="sfyr1FewhB0_T64nZSGB-46" value="" style="shape=image;verticalLabelPosition=bottom;labelBackgroundColor=default;verticalAlign=top;aspect=fixed;imageAspect=0;image=https://support.minitab.com/en-us/minitab/media/generated-content/images/connectline_scatterplot_def.png;" vertex="1" parent="1">
          <mxGeometry x="85" y="295" width="105.19" height="70" as="geometry" />
        </mxCell>
        <mxCell id="sfyr1FewhB0_T64nZSGB-47" value="" style="shape=image;verticalLabelPosition=bottom;labelBackgroundColor=default;verticalAlign=top;aspect=fixed;imageAspect=0;image=https://support.minitab.com/en-us/minitab/media/generated-content/images/connectline_scatterplot_def.png;" vertex="1" parent="1">
          <mxGeometry x="85" y="364" width="105.19" height="70" as="geometry" />
        </mxCell>
        <mxCell id="sfyr1FewhB0_T64nZSGB-48" value="" style="endArrow=classic;startArrow=classic;html=1;rounded=0;" edge="1" parent="1">
          <mxGeometry width="50" height="50" relative="1" as="geometry">
            <mxPoint x="85" y="149" as="sourcePoint" />
            <mxPoint x="188" y="149" as="targetPoint" />
          </mxGeometry>
        </mxCell>
        <mxCell id="sfyr1FewhB0_T64nZSGB-49" value="(72)" style="text;html=1;align=center;verticalAlign=middle;whiteSpace=wrap;rounded=0;" vertex="1" parent="1">
          <mxGeometry x="78" y="118" width="124.91" height="30" as="geometry" />
        </mxCell>
        <mxCell id="sfyr1FewhB0_T64nZSGB-52" value="Past time steps" style="text;html=1;align=center;verticalAlign=middle;whiteSpace=wrap;rounded=0;rotation=-90;" vertex="1" parent="1">
          <mxGeometry x="-23" y="331" width="124.91" height="30" as="geometry" />
        </mxCell>
        <mxCell id="sfyr1FewhB0_T64nZSGB-53" value="(5)" style="text;html=1;align=center;verticalAlign=middle;whiteSpace=wrap;rounded=0;rotation=-90;" vertex="1" parent="1">
          <mxGeometry x="-7" y="340" width="124.91" height="30" as="geometry" />
        </mxCell>
        <mxCell id="sfyr1FewhB0_T64nZSGB-54" value="" style="endArrow=classic;startArrow=classic;html=1;rounded=0;" edge="1" parent="1">
          <mxGeometry width="50" height="50" relative="1" as="geometry">
            <mxPoint x="68" y="503" as="sourcePoint" />
            <mxPoint x="68" y="161" as="targetPoint" />
          </mxGeometry>
        </mxCell>
        <mxCell id="sfyr1FewhB0_T64nZSGB-55" value="LSTM" style="html=1;whiteSpace=wrap;" vertex="1" parent="1">
          <mxGeometry x="410" y="163" width="110" height="50" as="geometry" />
        </mxCell>
        <mxCell id="sfyr1FewhB0_T64nZSGB-56" value="LSTM" style="html=1;whiteSpace=wrap;" vertex="1" parent="1">
          <mxGeometry x="410" y="233" width="110" height="50" as="geometry" />
        </mxCell>
        <mxCell id="sfyr1FewhB0_T64nZSGB-57" value="LSTM" style="html=1;whiteSpace=wrap;" vertex="1" parent="1">
          <mxGeometry x="410" y="303" width="110" height="50" as="geometry" />
        </mxCell>
        <mxCell id="sfyr1FewhB0_T64nZSGB-58" value="LSTM" style="html=1;whiteSpace=wrap;" vertex="1" parent="1">
          <mxGeometry x="410" y="373" width="110" height="50" as="geometry" />
        </mxCell>
        <mxCell id="sfyr1FewhB0_T64nZSGB-59" value="LSTM" style="html=1;whiteSpace=wrap;" vertex="1" parent="1">
          <mxGeometry x="410" y="443" width="110" height="50" as="geometry" />
        </mxCell>
        <mxCell id="sfyr1FewhB0_T64nZSGB-60" value="" style="endArrow=classic;html=1;rounded=0;exitX=0.5;exitY=0;exitDx=0;exitDy=0;entryX=0.5;entryY=1;entryDx=0;entryDy=0;" edge="1" parent="1" source="sfyr1FewhB0_T64nZSGB-59" target="sfyr1FewhB0_T64nZSGB-58">
          <mxGeometry width="50" height="50" relative="1" as="geometry">
            <mxPoint x="441" y="342" as="sourcePoint" />
            <mxPoint x="491" y="292" as="targetPoint" />
          </mxGeometry>
        </mxCell>
        <mxCell id="sfyr1FewhB0_T64nZSGB-61" value="" style="endArrow=classic;html=1;rounded=0;exitX=0.5;exitY=0;exitDx=0;exitDy=0;entryX=0.5;entryY=1;entryDx=0;entryDy=0;" edge="1" parent="1" source="sfyr1FewhB0_T64nZSGB-58" target="sfyr1FewhB0_T64nZSGB-57">
          <mxGeometry width="50" height="50" relative="1" as="geometry">
            <mxPoint x="441" y="342" as="sourcePoint" />
            <mxPoint x="491" y="292" as="targetPoint" />
          </mxGeometry>
        </mxCell>
        <mxCell id="sfyr1FewhB0_T64nZSGB-62" value="" style="endArrow=classic;html=1;rounded=0;exitX=0.5;exitY=0;exitDx=0;exitDy=0;entryX=0.5;entryY=1;entryDx=0;entryDy=0;" edge="1" parent="1" source="sfyr1FewhB0_T64nZSGB-57" target="sfyr1FewhB0_T64nZSGB-56">
          <mxGeometry width="50" height="50" relative="1" as="geometry">
            <mxPoint x="592" y="329" as="sourcePoint" />
            <mxPoint x="642" y="279" as="targetPoint" />
          </mxGeometry>
        </mxCell>
        <mxCell id="sfyr1FewhB0_T64nZSGB-63" value="" style="endArrow=classic;html=1;rounded=0;exitX=0.5;exitY=0;exitDx=0;exitDy=0;entryX=0.5;entryY=1;entryDx=0;entryDy=0;" edge="1" parent="1" source="sfyr1FewhB0_T64nZSGB-56" target="sfyr1FewhB0_T64nZSGB-55">
          <mxGeometry width="50" height="50" relative="1" as="geometry">
            <mxPoint x="650" y="306" as="sourcePoint" />
            <mxPoint x="700" y="256" as="targetPoint" />
          </mxGeometry>
        </mxCell>
        <mxCell id="sfyr1FewhB0_T64nZSGB-64" value="" style="endArrow=classic;html=1;rounded=0;exitX=1;exitY=0.5;exitDx=0;exitDy=0;entryX=0;entryY=0.5;entryDx=0;entryDy=0;" edge="1" parent="1" source="sfyr1FewhB0_T64nZSGB-6" target="sfyr1FewhB0_T64nZSGB-59">
          <mxGeometry width="50" height="50" relative="1" as="geometry">
            <mxPoint x="660" y="316" as="sourcePoint" />
            <mxPoint x="710" y="266" as="targetPoint" />
          </mxGeometry>
        </mxCell>
        <mxCell id="sfyr1FewhB0_T64nZSGB-65" value="" style="endArrow=classic;html=1;rounded=0;exitX=1;exitY=0.5;exitDx=0;exitDy=0;" edge="1" parent="1" source="sfyr1FewhB0_T64nZSGB-5" target="sfyr1FewhB0_T64nZSGB-58">
          <mxGeometry width="50" height="50" relative="1" as="geometry">
            <mxPoint x="670" y="326" as="sourcePoint" />
            <mxPoint x="720" y="276" as="targetPoint" />
          </mxGeometry>
        </mxCell>
        <mxCell id="sfyr1FewhB0_T64nZSGB-66" value="" style="endArrow=classic;html=1;rounded=0;exitX=1;exitY=0.5;exitDx=0;exitDy=0;entryX=0;entryY=0.5;entryDx=0;entryDy=0;" edge="1" parent="1" source="sfyr1FewhB0_T64nZSGB-4" target="sfyr1FewhB0_T64nZSGB-57">
          <mxGeometry width="50" height="50" relative="1" as="geometry">
            <mxPoint x="680" y="336" as="sourcePoint" />
            <mxPoint x="730" y="286" as="targetPoint" />
          </mxGeometry>
        </mxCell>
        <mxCell id="sfyr1FewhB0_T64nZSGB-67" value="" style="endArrow=classic;html=1;rounded=0;exitX=1;exitY=0.5;exitDx=0;exitDy=0;entryX=0;entryY=0.5;entryDx=0;entryDy=0;" edge="1" parent="1" source="sfyr1FewhB0_T64nZSGB-3" target="sfyr1FewhB0_T64nZSGB-56">
          <mxGeometry width="50" height="50" relative="1" as="geometry">
            <mxPoint x="690" y="346" as="sourcePoint" />
            <mxPoint x="740" y="296" as="targetPoint" />
          </mxGeometry>
        </mxCell>
        <mxCell id="sfyr1FewhB0_T64nZSGB-68" value="" style="endArrow=classic;html=1;rounded=0;exitX=1;exitY=0.5;exitDx=0;exitDy=0;entryX=0;entryY=0.5;entryDx=0;entryDy=0;" edge="1" parent="1" source="sfyr1FewhB0_T64nZSGB-2" target="sfyr1FewhB0_T64nZSGB-55">
          <mxGeometry width="50" height="50" relative="1" as="geometry">
            <mxPoint x="700" y="356" as="sourcePoint" />
            <mxPoint x="750" y="306" as="targetPoint" />
          </mxGeometry>
        </mxCell>
        <mxCell id="sfyr1FewhB0_T64nZSGB-69" value="" style="endArrow=classic;html=1;rounded=0;exitX=1;exitY=0.5;exitDx=0;exitDy=0;entryX=0;entryY=0.024;entryDx=0;entryDy=0;entryPerimeter=0;" edge="1" parent="1" source="sfyr1FewhB0_T64nZSGB-55" target="sfyr1FewhB0_T64nZSGB-85">
          <mxGeometry width="50" height="50" relative="1" as="geometry">
            <mxPoint x="517" y="219" as="sourcePoint" />
            <mxPoint x="586" y="188" as="targetPoint" />
          </mxGeometry>
        </mxCell>
        <mxCell id="sfyr1FewhB0_T64nZSGB-70" value="Embedded&amp;nbsp; representation of map over time (256)" style="text;html=1;align=center;verticalAlign=middle;whiteSpace=wrap;rounded=0;" vertex="1" parent="1">
          <mxGeometry x="505" y="118" width="131" height="31" as="geometry" />
        </mxCell>
        <mxCell id="sfyr1FewhB0_T64nZSGB-71" value="distToGoal" style="html=1;whiteSpace=wrap;" vertex="1" parent="1">
          <mxGeometry x="91" y="594" width="93" height="50" as="geometry" />
        </mxCell>
        <mxCell id="sfyr1FewhB0_T64nZSGB-72" value="angularVelocity" style="html=1;whiteSpace=wrap;" vertex="1" parent="1">
          <mxGeometry x="91" y="744" width="93" height="50" as="geometry" />
        </mxCell>
        <mxCell id="sfyr1FewhB0_T64nZSGB-73" value="linearVelocity" style="html=1;whiteSpace=wrap;" vertex="1" parent="1">
          <mxGeometry x="91" y="694" width="93" height="50" as="geometry" />
        </mxCell>
        <mxCell id="sfyr1FewhB0_T64nZSGB-74" value="headingToGoal" style="html=1;whiteSpace=wrap;" vertex="1" parent="1">
          <mxGeometry x="91" y="644" width="93" height="50" as="geometry" />
        </mxCell>
        <mxCell id="sfyr1FewhB0_T64nZSGB-76" value="" style="shape=image;verticalLabelPosition=bottom;labelBackgroundColor=default;verticalAlign=top;aspect=fixed;imageAspect=0;image=https://www.researchgate.net/publication/341315024/figure/fig2/AS:890352718344199@1589288038104/A-four-layer-MLP-Because-the-input-layer-does-not-participate-in-the-calculation-this.png;" vertex="1" parent="1">
          <mxGeometry x="232" y="623.5" width="330.02" height="137" as="geometry" />
        </mxCell>
        <mxCell id="sfyr1FewhB0_T64nZSGB-78" value="" style="strokeWidth=2;html=1;shape=mxgraph.flowchart.annotation_2;align=left;labelPosition=right;pointerEvents=1;rotation=-180;" vertex="1" parent="1">
          <mxGeometry x="194" y="600.5" width="44" height="183" as="geometry" />
        </mxCell>
        <mxCell id="sfyr1FewhB0_T64nZSGB-85" value="Fully Connected Layer" style="html=1;whiteSpace=wrap;" vertex="1" parent="1">
          <mxGeometry x="623" y="174" width="110" height="576" as="geometry" />
        </mxCell>
        <mxCell id="sfyr1FewhB0_T64nZSGB-86" value="" style="endArrow=classic;html=1;rounded=0;exitX=1;exitY=0.5;exitDx=0;exitDy=0;entryX=0;entryY=0.5;entryDx=0;entryDy=0;" edge="1" parent="1" source="sfyr1FewhB0_T64nZSGB-45" target="sfyr1FewhB0_T64nZSGB-3">
          <mxGeometry width="50" height="50" relative="1" as="geometry">
            <mxPoint x="350" y="268" as="sourcePoint" />
            <mxPoint x="225" y="249" as="targetPoint" />
          </mxGeometry>
        </mxCell>
        <mxCell id="sfyr1FewhB0_T64nZSGB-87" value="" style="endArrow=classic;html=1;rounded=0;exitX=1;exitY=0.5;exitDx=0;exitDy=0;" edge="1" parent="1" source="sfyr1FewhB0_T64nZSGB-44" target="sfyr1FewhB0_T64nZSGB-2">
          <mxGeometry width="50" height="50" relative="1" as="geometry">
            <mxPoint x="360" y="278" as="sourcePoint" />
            <mxPoint x="403" y="278" as="targetPoint" />
          </mxGeometry>
        </mxCell>
        <mxCell id="sfyr1FewhB0_T64nZSGB-88" value="" style="endArrow=classic;html=1;rounded=0;exitX=1;exitY=0.5;exitDx=0;exitDy=0;" edge="1" parent="1" source="sfyr1FewhB0_T64nZSGB-46" target="sfyr1FewhB0_T64nZSGB-4">
          <mxGeometry width="50" height="50" relative="1" as="geometry">
            <mxPoint x="370" y="288" as="sourcePoint" />
            <mxPoint x="413" y="288" as="targetPoint" />
          </mxGeometry>
        </mxCell>
        <mxCell id="sfyr1FewhB0_T64nZSGB-89" value="" style="endArrow=classic;html=1;rounded=0;exitX=1;exitY=0.5;exitDx=0;exitDy=0;" edge="1" parent="1" source="sfyr1FewhB0_T64nZSGB-47" target="sfyr1FewhB0_T64nZSGB-5">
          <mxGeometry width="50" height="50" relative="1" as="geometry">
            <mxPoint x="380" y="298" as="sourcePoint" />
            <mxPoint x="423" y="298" as="targetPoint" />
          </mxGeometry>
        </mxCell>
        <mxCell id="sfyr1FewhB0_T64nZSGB-90" value="" style="endArrow=classic;html=1;rounded=0;exitX=1;exitY=0.5;exitDx=0;exitDy=0;" edge="1" parent="1" source="sfyr1FewhB0_T64nZSGB-39" target="sfyr1FewhB0_T64nZSGB-6">
          <mxGeometry width="50" height="50" relative="1" as="geometry">
            <mxPoint x="390" y="308" as="sourcePoint" />
            <mxPoint x="433" y="308" as="targetPoint" />
          </mxGeometry>
        </mxCell>
        <mxCell id="sfyr1FewhB0_T64nZSGB-91" value="Spatial information&lt;div&gt;(72 x filters)&lt;/div&gt;" style="text;html=1;align=center;verticalAlign=middle;whiteSpace=wrap;rounded=0;" vertex="1" parent="1">
          <mxGeometry x="320" y="116" width="145" height="32" as="geometry" />
        </mxCell>
        <mxCell id="sfyr1FewhB0_T64nZSGB-93" style="edgeStyle=orthogonalEdgeStyle;rounded=0;orthogonalLoop=1;jettySize=auto;html=1;exitX=1;exitY=0.5;exitDx=0;exitDy=0;entryX=0;entryY=0.899;entryDx=0;entryDy=0;entryPerimeter=0;" edge="1" parent="1" source="sfyr1FewhB0_T64nZSGB-76" target="sfyr1FewhB0_T64nZSGB-85">
          <mxGeometry relative="1" as="geometry" />
        </mxCell>
        <mxCell id="sfyr1FewhB0_T64nZSGB-94" value="" style="endArrow=classic;html=1;rounded=0;exitX=0.982;exitY=0.408;exitDx=0;exitDy=0;exitPerimeter=0;" edge="1" parent="1" source="sfyr1FewhB0_T64nZSGB-85">
          <mxGeometry width="50" height="50" relative="1" as="geometry">
            <mxPoint x="752" y="394" as="sourcePoint" />
            <mxPoint x="821" y="409" as="targetPoint" />
          </mxGeometry>
        </mxCell>
        <mxCell id="sfyr1FewhB0_T64nZSGB-96" value="" style="endArrow=classic;html=1;rounded=0;exitX=1;exitY=0.55;exitDx=0;exitDy=0;exitPerimeter=0;" edge="1" parent="1" source="sfyr1FewhB0_T64nZSGB-85">
          <mxGeometry width="50" height="50" relative="1" as="geometry">
            <mxPoint x="741" y="419" as="sourcePoint" />
            <mxPoint x="828" y="491" as="targetPoint" />
          </mxGeometry>
        </mxCell>
        <mxCell id="sfyr1FewhB0_T64nZSGB-97" value="Linear Velocity" style="text;html=1;align=center;verticalAlign=middle;whiteSpace=wrap;rounded=0;" vertex="1" parent="1">
          <mxGeometry x="719" y="378" width="145" height="32" as="geometry" />
        </mxCell>
        <mxCell id="sfyr1FewhB0_T64nZSGB-98" value="Angular Velocity" style="text;html=1;align=center;verticalAlign=middle;whiteSpace=wrap;rounded=0;" vertex="1" parent="1">
          <mxGeometry x="719" y="461" width="145" height="32" as="geometry" />
        </mxCell>
        <mxCell id="sfyr1FewhB0_T64nZSGB-99" value="&lt;b&gt;&lt;u&gt;Curent State&lt;/u&gt;&lt;/b&gt;" style="text;html=1;align=center;verticalAlign=middle;whiteSpace=wrap;rounded=0;" vertex="1" parent="1">
          <mxGeometry x="96" y="44" width="83" height="30" as="geometry" />
        </mxCell>
        <mxCell id="sfyr1FewhB0_T64nZSGB-100" value="Embedded robot and goal information" style="text;html=1;align=center;verticalAlign=middle;whiteSpace=wrap;rounded=0;" vertex="1" parent="1">
          <mxGeometry x="518" y="769" width="131" height="31" as="geometry" />
        </mxCell>
      </root>
    </mxGraphModel>
  </diagram>
</mxfile>
